# xmcd CD database file
#
# Track frame offsets:
#	150
#	16575
#	43575
#	51600
#	72450
#	93675
#	103800
#	126900
#	152175
#	159300
#
# Disc length: 2470 seconds
#
# Revision: 1
# Processed by: cddbd v1.5.2PL0 Copyright (c) Steve Scherf et al.
# Submitted via: CDex 1.51
#
DISCID=8809a40a
DTITLE=fox capture plan - BRIDGE
DYEAR=2013
DGENRE=Jazz
TTITLE0=Attack on fox
TTITLE1=RISING
TTITLE2=Bridge #1
TTITLE3=Far out
TTITLE4=閉ざされた青い空間
TTITLE5=Bridge #2
TTITLE6=Pictures
TTITLE7=3rd Down (Alternate Take)
TTITLE8=Bridge #3
TTITLE9=Teardrop
EXTD=YEAR: 2013
EXTT0=
EXTT1=
EXTT2=
EXTT3=
EXTT4=
EXTT5=
EXTT6=
EXTT7=
EXTT8=
EXTT9=
PLAYORDER=
